<?xml version="1.0" standalone="no"?>
<!DOCTYPE svg PUBLIC "-//W3C//DTD SVG 20010904//EN"
 "http://www.w3.org/TR/2001/REC-SVG-20010904/DTD/svg10.dtd">
<svg version="1.0" xmlns="http://www.w3.org/2000/svg"
 width="1323.000000pt" height="469.000000pt" viewBox="0 0 1323.000000 469.000000"
 preserveAspectRatio="xMidYMid meet">
<metadata>
Created by potrace 1.16, written by Peter Selinger 2001-2019
</metadata>
<g transform="translate(0.000000,469.000000) scale(0.100000,-0.100000)"
fill="#000000" stroke="none">
<path d="M12384 4493 c-94 -102 -233 -327 -305 -493 -81 -188 -150 -456 -151
-585 -1 -79 21 -145 72 -225 64 -100 188 -146 328 -121 117 21 201 91 258 214
47 105 44 309 -8 430 -41 95 -193 197 -292 197 -57 0 -117 -24 -158 -63 -16
-14 -28 -21 -28 -14 1 24 90 220 144 316 60 106 150 238 197 286 31 33 37 63
17 83 -20 20 -39 14 -74 -25z m2 -698 c89 -53 120 -93 140 -182 24 -108 16
-240 -19 -308 -38 -76 -96 -131 -158 -149 -147 -44 -253 4 -317 144 -32 69
-32 151 0 295 l23 100 32 -3 c30 -3 35 1 68 52 61 96 129 111 231 51z"/>
<path d="M10240 4119 c-16 -18 -64 -80 -107 -140 -59 -81 -84 -109 -103 -111
-52 -6 -30 -88 24 -88 27 0 53 27 136 140 l62 85 -5 -677 c-4 -505 -2 -682 7
-700 8 -16 20 -23 41 -23 l30 0 7 265 c3 146 11 285 17 310 5 25 10 48 11 53
0 4 11 0 25 -9 21 -14 37 -14 132 -5 162 17 254 40 346 85 75 38 82 43 82 71
0 42 -29 44 -102 7 -56 -29 -153 -62 -179 -62 -7 0 11 24 41 53 118 119 159
280 119 475 -30 147 -86 232 -153 232 -82 0 -219 -211 -303 -465 l-33 -100 -5
308 c-4 259 -7 309 -20 317 -25 16 -40 11 -70 -21z m463 -156 c9 -17 27 -68
38 -113 55 -218 -15 -395 -192 -490 -77 -41 -179 -73 -179 -57 0 29 52 221 85
317 64 182 183 389 219 377 6 -2 19 -17 29 -34z"/>
<path d="M2793 4132 c-17 -11 -47 -131 -83 -327 -49 -270 -86 -410 -132 -495
-50 -94 -103 -160 -129 -160 -53 0 -115 60 -139 133 -9 28 -11 137 -8 410 3
343 2 375 -15 400 -38 58 -98 44 -191 -43 -120 -112 -153 -210 -70 -210 7 0
23 18 34 40 24 47 80 111 123 142 24 17 31 18 38 7 4 -8 5 -171 2 -364 -6
-318 -4 -356 11 -407 44 -138 185 -225 277 -171 36 21 119 139 159 225 16 35
46 133 66 218 19 85 37 156 38 158 2 1 6 -45 10 -104 14 -212 41 -318 108
-410 66 -92 179 -111 248 -42 34 33 37 50 14 72 -21 21 -27 20 -62 -9 -59 -50
-119 -19 -172 88 -42 87 -61 253 -66 580 -2 142 -6 262 -9 267 -7 12 -35 13
-52 2z"/>
<path d="M866 4085 c-141 -36 -300 -143 -367 -246 l-34 -54 -5 144 c-4 123 -8
145 -22 155 -13 8 -23 8 -35 0 -15 -9 -18 -30 -21 -130 -5 -184 37 -794 59
-852 12 -32 37 -39 58 -16 16 17 17 30 10 104 -4 47 -8 157 -8 245 -1 238 22
324 111 414 65 66 152 119 245 147 147 46 265 21 247 -52 -12 -46 37 -72 70
-38 36 36 4 134 -55 168 -44 26 -172 31 -253 11z"/>
<path d="M8950 4079 c-61 -37 -137 -107 -186 -172 -42 -56 -57 -83 -78 -142
-6 -16 -11 -10 -25 32 -39 116 -157 209 -312 246 -37 9 -64 -13 -56 -45 5 -20
17 -28 53 -37 101 -26 192 -91 231 -164 22 -42 29 -175 14 -263 -24 -145 -95
-238 -189 -251 -34 -5 -42 -2 -51 16 -13 24 -53 28 -70 7 -18 -22 -2 -66 33
-88 24 -15 44 -18 88 -15 101 6 195 85 235 197 10 28 21 50 24 50 4 0 9 -21
13 -47 8 -61 44 -139 87 -188 52 -59 164 -104 300 -120 61 -8 83 5 77 47 -3
20 -12 24 -84 35 -92 14 -180 44 -219 74 -33 27 -69 99 -84 167 -23 108 -7
292 31 372 20 41 135 164 217 232 31 26 32 29 19 50 -20 30 -28 31 -68 7z"/>
<path d="M7197 4045 c-15 -13 -58 -42 -95 -64 -127 -75 -175 -147 -193 -293
-14 -115 -35 -213 -59 -278 -36 -97 -118 -190 -155 -177 -33 13 -67 143 -95
369 -25 197 -37 246 -61 259 -29 15 -56 -5 -64 -48 -21 -117 -186 -543 -209
-543 -3 0 -13 11 -22 25 -14 21 -18 81 -28 376 -10 284 -15 352 -27 360 -36
24 -131 -13 -224 -89 -61 -49 -77 -80 -55 -108 19 -22 36 -17 88 29 49 44 121
92 126 86 2 -2 8 -146 13 -319 11 -340 16 -366 69 -415 29 -27 71 -32 105 -15
24 13 88 140 144 284 23 61 46 120 50 131 6 14 12 -11 21 -80 23 -172 70 -332
107 -363 53 -44 153 -12 211 67 79 107 111 204 142 418 21 152 43 188 157 255
119 69 157 114 125 146 -18 18 -40 14 -71 -13z"/>
<path d="M5030 4026 c-8 -7 -55 -19 -104 -25 -100 -14 -192 -45 -205 -69 -11
-22 -19 -92 -31 -287 -19 -290 -51 -415 -126 -491 -54 -53 -123 -45 -185 23
-58 62 -60 70 -58 350 2 293 -6 341 -63 400 -45 47 -86 56 -167 37 -102 -23
-192 -72 -216 -116 -27 -50 -13 -93 30 -93 27 0 30 4 33 33 3 31 9 36 65 62
34 15 85 32 112 38 43 10 53 9 75 -7 46 -34 53 -82 51 -368 -2 -260 -2 -262
23 -310 30 -59 98 -127 148 -148 153 -63 286 65 329 318 11 60 23 182 29 270
15 238 16 244 54 256 45 15 153 31 207 31 53 0 69 13 69 55 0 50 -38 72 -70
41z"/>
<path d="M4852 1994 c-5 -8 -5 -37 -1 -62 13 -78 10 -233 -6 -302 -48 -205
-139 -411 -223 -501 -41 -45 -69 -64 -125 -87 -40 -17 -85 -34 -101 -38 -28
-7 -29 -6 -22 27 14 68 19 504 7 594 -20 146 -60 226 -105 209 -25 -10 -27
-38 -7 -85 34 -77 44 -191 38 -442 -3 -164 -10 -250 -21 -292 -21 -82 -20 -94
9 -107 21 -10 43 -5 140 27 138 45 215 92 271 166 85 111 182 346 220 529 18
92 16 301 -5 353 -12 31 -54 38 -69 11z"/>
<path d="M8922 1964 c-12 -8 -22 -22 -22 -30 0 -20 -35 -88 -82 -156 -21 -32
-67 -110 -102 -173 l-63 -116 -12 98 c-15 125 -43 216 -85 274 -40 55 -87 79
-153 79 -109 0 -192 -101 -133 -160 35 -35 70 -19 70 32 0 18 7 31 22 39 64
35 134 -14 167 -115 18 -54 48 -252 52 -346 2 -27 -39 -117 -189 -417 -106
-211 -192 -392 -192 -403 0 -25 30 -41 53 -28 10 5 91 156 181 336 l164 327 5
-55 c4 -30 11 -119 18 -197 6 -78 19 -183 29 -234 15 -80 22 -97 49 -121 74
-66 159 -20 232 126 41 83 43 110 9 121 -30 10 -48 -5 -66 -55 -9 -26 -32 -68
-51 -94 -38 -53 -68 -60 -83 -20 -15 37 -37 231 -55 466 l-16 207 82 153 c45
84 104 186 131 226 60 89 98 168 98 204 0 36 -29 52 -58 32z"/>
<path d="M10469 1960 c-144 -24 -218 -104 -306 -334 -61 -160 -103 -330 -114
-467 -13 -147 -7 -740 8 -784 7 -21 17 -31 35 -33 43 -5 50 16 43 130 -4 57
-7 242 -8 413 -1 327 4 384 52 532 l19 58 1 -85 c3 -191 118 -372 250 -395
123 -21 255 99 318 288 25 75 27 96 28 232 0 178 -19 255 -85 348 -61 84 -135
114 -241 97z m129 -96 c34 -22 80 -92 98 -148 9 -28 18 -101 21 -162 9 -181
-31 -316 -122 -413 -80 -85 -149 -89 -219 -11 -93 103 -120 249 -80 433 l17
79 -22 17 -23 18 25 50 c49 96 96 136 180 153 49 9 93 4 125 -16z"/>
<path d="M12130 1923 c-169 -46 -243 -139 -271 -336 -28 -207 79 -567 194
-651 35 -26 139 -33 221 -16 79 16 127 60 157 143 17 49 23 91 26 204 6 161
-11 416 -33 512 -8 35 -12 66 -10 68 2 3 40 -3 83 -13 54 -13 119 -18 213 -19
126 0 139 2 193 27 47 22 57 31 57 52 0 40 -29 48 -81 23 -38 -19 -60 -22
-174 -21 -89 0 -152 6 -200 18 -105 26 -294 31 -375 9z m165 -73 c-8 -14 13
-50 30 -50 50 0 75 -597 29 -714 -27 -71 -56 -88 -153 -94 -65 -4 -86 -1 -107
13 -52 34 -131 246 -154 414 -11 83 -1 210 21 269 30 80 97 134 194 158 62 15
148 18 140 4z"/>
<path d="M1122 1888 c-7 -7 -12 -21 -12 -32 0 -10 -22 -42 -48 -70 -52 -55
-162 -209 -233 -323 l-44 -72 -16 47 c-23 66 -44 107 -96 179 -48 68 -101 106
-172 122 -57 13 -83 0 -79 -37 3 -23 10 -29 49 -38 63 -16 82 -27 124 -76 52
-62 101 -166 114 -245 l12 -68 -45 -95 c-56 -118 -76 -194 -76 -285 0 -170
112 -237 177 -105 32 65 47 216 35 355 l-9 110 35 65 c83 152 216 342 314 447
47 51 58 68 53 86 -13 41 -58 60 -83 35z m-390 -947 c-12 -94 -29 -142 -42
-121 -23 37 -2 213 33 273 11 20 12 18 15 -27 2 -26 -1 -83 -6 -125z"/>
<path d="M6231 1854 c-44 -56 -112 -348 -114 -484 -2 -186 83 -326 203 -338
91 -8 186 66 255 201 l39 74 31 -66 c43 -90 75 -124 147 -160 69 -35 153 -42
211 -17 91 38 177 208 177 351 0 126 -51 357 -87 398 -18 20 -63 23 -81 5 -21
-21 -15 -67 11 -77 27 -10 39 -45 62 -175 28 -165 13 -273 -54 -369 -39 -57
-56 -67 -116 -67 -58 0 -113 28 -158 81 -59 68 -78 145 -81 328 -1 77 -4 96
-18 105 -34 21 -52 -5 -69 -100 -40 -212 -99 -338 -193 -411 -111 -87 -222 84
-195 299 19 153 69 344 99 378 11 13 20 27 20 31 0 46 -57 54 -89 13z"/>
<path d="M2429 1803 c-11 -13 -15 -110 -21 -482 -4 -256 -13 -547 -21 -646 -8
-99 -12 -187 -9 -195 10 -28 36 -37 61 -21 18 12 49 472 51 761 l2 195 22 -90
c32 -129 64 -182 127 -210 98 -45 188 32 243 205 23 71 36 96 36 67 0 -36 54
-158 88 -198 79 -92 202 -105 300 -32 33 25 41 50 20 71 -17 17 -35 15 -68 -9
-41 -31 -116 -36 -157 -10 -41 26 -59 54 -88 138 -31 91 -54 206 -63 327 -5
78 -11 101 -24 110 -13 8 -23 8 -35 0 -14 -9 -20 -32 -26 -109 -17 -225 -82
-441 -144 -482 -22 -15 -28 -15 -51 -2 -14 8 -34 28 -44 45 -10 18 -44 146
-74 285 -31 140 -63 264 -70 277 -17 26 -36 28 -55 5z"/>
</g>
</svg>
