<?xml version="1.0" standalone="no"?>
<!DOCTYPE svg PUBLIC "-//W3C//DTD SVG 20010904//EN"
 "http://www.w3.org/TR/2001/REC-SVG-20010904/DTD/svg10.dtd">
<svg version="1.0" xmlns="http://www.w3.org/2000/svg"
 width="1132.000000pt" height="447.000000pt" viewBox="0 0 1132.000000 447.000000"
 preserveAspectRatio="xMidYMid meet">
<metadata>
Created by potrace 1.16, written by Peter Selinger 2001-2019
</metadata>
<g transform="translate(0.000000,447.000000) scale(0.100000,-0.100000)"
fill="#000000" stroke="none">
<path d="M10489 4343 c-85 -92 -204 -279 -280 -438 -122 -254 -205 -604 -174
-730 12 -47 62 -141 95 -179 86 -97 273 -119 404 -48 56 31 118 103 153 180
45 97 42 320 -6 427 -33 74 -144 163 -238 191 -65 20 -138 4 -199 -42 -54 -41
-54 -41 6 98 59 138 148 290 238 410 88 117 99 150 52 156 -17 2 -34 -6 -51
-25z m-1 -707 c69 -40 118 -94 134 -148 7 -24 13 -97 13 -168 0 -140 -10 -171
-83 -252 -102 -114 -306 -110 -383 8 -67 101 -75 186 -36 359 l22 100 32 -3
c28 -3 35 2 58 37 14 22 25 44 25 48 1 14 52 46 84 53 43 10 72 3 134 -34z"/>
<path d="M8462 3943 c-8 -3 -58 -65 -113 -138 -66 -90 -106 -135 -120 -137
-35 -5 -46 -31 -25 -63 14 -21 24 -26 49 -23 32 3 42 15 182 203 14 18 15 -45
9 -560 -7 -665 -7 -761 1 -792 7 -31 39 -47 65 -33 19 10 20 21 20 240 0 188
12 373 25 388 2 2 13 -2 26 -8 17 -10 49 -10 142 -1 152 16 252 41 347 88 62
31 75 42 75 62 0 46 -27 48 -112 9 -75 -35 -143 -58 -171 -58 -8 0 6 20 31 44
99 96 139 194 140 341 1 200 -74 375 -162 375 -88 0 -208 -181 -301 -452 l-39
-113 -1 295 c0 251 -2 299 -16 318 -15 22 -27 25 -52 15z m439 -184 c56 -106
70 -299 30 -401 -43 -111 -163 -209 -308 -251 -65 -19 -64 -24 -24 134 36 141
90 290 145 393 44 84 111 169 129 163 6 -2 19 -19 28 -38z"/>
<path d="M985 3931 c-18 -31 -40 -118 -71 -286 -71 -392 -111 -518 -205 -642
-32 -43 -45 -53 -69 -53 -37 0 -93 48 -123 104 -22 40 -22 46 -19 431 l3 391
-28 28 c-22 23 -34 27 -61 23 -93 -16 -262 -210 -232 -267 6 -12 21 -20 36
-20 19 0 28 8 40 36 16 38 90 123 137 156 l28 20 -3 -384 -3 -385 35 -68 c49
-96 110 -140 193 -140 59 0 60 0 106 52 78 87 135 208 176 373 19 79 35 153
36 164 1 53 16 -24 23 -116 14 -212 49 -318 131 -404 32 -34 50 -44 87 -49 62
-9 100 0 132 34 53 56 6 112 -50 60 -31 -30 -89 -21 -122 18 -78 92 -101 226
-109 628 -3 163 -10 285 -15 293 -12 14 -44 16 -53 3z"/>
<path d="M7170 3892 c-21 -7 -87 -58 -138 -106 -61 -57 -111 -128 -138 -194
-13 -31 -24 -48 -24 -37 -1 61 -93 182 -174 228 -55 33 -139 59 -173 55 -24
-2 -28 -8 -28 -33 0 -27 4 -31 75 -55 152 -51 216 -127 226 -269 6 -72 -14
-203 -40 -263 -45 -106 -176 -178 -214 -118 -22 35 -72 19 -72 -23 0 -10 14
-32 30 -49 29 -28 34 -30 94 -26 108 7 188 73 240 201 l22 55 17 -69 c20 -89
68 -173 120 -210 87 -63 314 -107 341 -66 21 33 -4 50 -91 64 -101 16 -183 46
-218 81 -16 15 -40 52 -54 82 -25 52 -26 63 -26 215 0 151 1 163 26 215 36 75
104 155 183 215 47 35 66 56 66 72 0 25 -26 43 -50 35z"/>
<path d="M5395 3844 c-16 -14 -65 -46 -109 -72 -81 -48 -126 -95 -151 -155 -8
-19 -24 -95 -35 -168 -32 -213 -64 -301 -139 -379 -52 -55 -77 -52 -102 11
-24 63 -45 168 -64 324 -21 176 -33 230 -55 250 -24 22 -57 5 -66 -33 -15 -75
-110 -349 -152 -441 -85 -187 -95 -159 -111 294 -13 388 -10 377 -87 357 -61
-17 -124 -54 -187 -112 -48 -45 -51 -49 -39 -74 16 -36 36 -33 94 18 27 23 66
53 87 64 l39 22 6 -73 c3 -39 9 -182 12 -317 6 -201 10 -252 24 -286 35 -82
116 -111 165 -58 26 28 89 166 146 318 40 109 40 109 54 -14 21 -173 76 -338
121 -359 59 -27 122 -4 183 65 80 91 125 214 151 414 6 47 16 102 21 123 13
49 70 112 129 142 61 31 150 102 150 120 0 17 -27 45 -43 45 -7 -1 -25 -12
-42 -26z"/>
<path d="M3228 3826 c-8 -7 -51 -18 -96 -25 -99 -15 -181 -38 -203 -57 -21
-19 -26 -52 -39 -254 -22 -341 -53 -467 -136 -539 -57 -50 -135 -35 -190 37
-50 65 -53 88 -47 327 4 145 2 240 -6 279 -29 157 -109 205 -262 160 -128 -38
-192 -90 -187 -152 6 -64 69 -70 76 -8 3 24 14 33 70 58 36 16 89 32 117 35
103 11 118 -40 113 -394 -3 -244 -3 -249 20 -292 73 -136 213 -197 317 -138
46 26 106 108 134 181 24 66 48 238 61 446 6 91 13 173 16 182 8 25 144 58
241 58 47 0 73 19 73 54 0 23 -28 56 -48 56 -6 0 -17 -6 -24 -14z"/>
<path d="M3051 1797 c-7 -10 -7 -39 1 -106 15 -130 0 -244 -52 -405 -57 -174
-120 -297 -190 -366 -44 -44 -72 -62 -138 -88 -110 -43 -111 -43 -100 16 4 26
11 133 14 237 9 283 -15 468 -69 531 -20 23 -26 25 -45 15 -27 -14 -27 -32 -2
-99 11 -29 25 -99 31 -155 15 -138 6 -446 -17 -559 -26 -130 -11 -139 137 -89
128 43 190 76 243 128 90 90 179 274 242 499 24 86 28 117 28 234 0 161 -13
220 -48 220 -13 0 -28 -6 -35 -13z"/>
<path d="M10223 1765 c-79 -22 -126 -49 -171 -101 -124 -140 -128 -418 -11
-714 64 -159 108 -195 240 -195 146 1 205 37 250 152 19 49 23 83 27 212 5
165 -10 396 -32 501 -8 36 -12 67 -10 69 3 3 45 -4 96 -14 59 -12 132 -18 209
-18 110 0 123 2 176 29 46 23 58 34 58 53 0 40 -26 47 -81 21 -43 -20 -64 -23
-164 -22 -75 0 -149 8 -214 21 -116 25 -293 27 -373 6z m167 -79 c0 -8 11 -23
26 -33 15 -11 29 -34 34 -58 17 -74 32 -335 28 -478 -4 -121 -8 -150 -28 -195
-27 -62 -50 -77 -137 -87 -115 -13 -143 8 -201 155 -50 128 -75 244 -75 355 0
240 93 350 301 354 39 1 52 -3 52 -13z"/>
<path d="M7104 1753 c-21 -66 -42 -106 -92 -182 -31 -48 -79 -128 -106 -178
-28 -51 -52 -90 -55 -88 -2 3 -10 49 -17 102 -24 171 -63 256 -143 310 -63 42
-183 21 -225 -39 -32 -46 -10 -118 36 -118 23 0 41 27 35 52 -8 29 18 47 67
48 32 0 45 -6 72 -35 45 -48 68 -128 89 -311 l18 -151 -199 -396 -199 -397 21
-20 c13 -13 27 -18 38 -14 10 4 86 143 184 338 l166 331 7 -75 c4 -41 12 -131
18 -200 17 -202 38 -295 73 -330 24 -24 38 -30 74 -30 39 0 50 5 87 43 46 46
107 156 107 192 0 13 -7 28 -15 35 -24 20 -52 2 -73 -50 -30 -72 -80 -140
-102 -140 -11 0 -24 9 -30 20 -17 32 -38 194 -56 443 l-17 234 73 139 c40 76
103 186 140 244 80 125 111 200 91 224 -18 22 -60 21 -67 -1z"/>
<path d="M8620 1751 c-84 -26 -166 -107 -215 -214 -44 -97 -113 -302 -136
-410 -34 -156 -50 -617 -29 -841 12 -128 21 -148 58 -144 l27 3 -3 120 c-7
241 -3 662 7 743 6 46 21 120 33 165 l23 82 6 -77 c16 -190 131 -365 252 -383
70 -11 123 10 187 71 65 62 108 135 141 244 20 63 24 96 23 205 0 136 -16 220
-55 297 -28 54 -88 119 -126 135 -34 14 -151 16 -193 4z m184 -92 c35 -27 74
-97 92 -161 24 -87 28 -232 10 -318 -32 -152 -127 -290 -209 -305 -74 -14
-152 56 -199 180 -28 73 -30 213 -5 315 l16 65 -23 21 -24 21 29 54 c59 107
121 148 225 149 47 0 67 -5 88 -21z"/>
<path d="M4433 1658 c-26 -28 -53 -107 -89 -263 -53 -231 -35 -399 54 -497 45
-50 80 -68 132 -68 95 0 202 99 265 246 17 38 18 38 25 14 29 -100 113 -196
197 -224 60 -21 146 -20 189 0 72 34 145 159 165 282 10 59 9 90 -5 186 -17
120 -47 235 -72 274 -33 50 -123 6 -94 -47 6 -12 17 -21 25 -21 19 0 41 -78
61 -217 13 -91 14 -125 5 -170 -15 -75 -51 -151 -92 -192 -32 -32 -36 -33 -96
-29 -150 10 -222 127 -228 372 -2 71 -8 133 -13 138 -5 5 -20 8 -33 6 -20 -2
-25 -11 -33 -53 -34 -196 -85 -335 -151 -413 -89 -104 -171 -93 -226 30 -20
45 -23 69 -23 153 1 141 60 396 105 454 39 49 -25 85 -68 39z"/>
<path d="M627 1606 c-12 -12 -15 -89 -20 -438 -3 -233 -13 -528 -22 -656 -17
-245 -15 -262 25 -262 10 0 23 6 29 13 13 17 38 376 47 702 l7 240 19 -85 c20
-91 56 -160 101 -194 36 -27 112 -28 150 -3 43 28 94 115 120 205 l23 82 18
-57 c22 -72 61 -151 88 -180 32 -34 103 -63 155 -63 56 0 146 38 162 68 26 49
-22 76 -72 40 -25 -18 -45 -23 -90 -23 -55 0 -60 2 -96 40 -61 66 -121 293
-121 459 0 74 -10 96 -41 96 -29 0 -36 -22 -47 -136 -22 -218 -63 -370 -120
-434 -32 -37 -42 -42 -65 -36 -48 12 -71 71 -131 351 -40 182 -61 264 -73 273
-21 15 -28 15 -46 -2z"/>
</g>
</svg>
