<?xml version="1.0" encoding="utf-8"?>
<svg xmlns="http://www.w3.org/2000/svg" xmlns:xlink="http://www.w3.org/1999/xlink" width="380" height="240" viewBox="0 0 1520 960">
<defs>
  <clipPath id="clip810">
    <rect x="0" y="0" width="1520" height="960"/>
  </clipPath>
</defs>
<path clip-path="url(#clip810)" d="M0 960 L1520 960 L1520 0 L0 0  Z" fill="#ffffff" fill-rule="evenodd" fill-opacity="1"/>
<defs>
  <clipPath id="clip811">
    <rect x="114" y="10" width="1384" height="49"/>
  </clipPath>
</defs>
<path clip-path="url(#clip810)" d="M146.792 854.667 L1472.76 854.667 L1472.76 112.104 L146.792 112.104  Z" fill="#ffffff" fill-rule="evenodd" fill-opacity="1"/>
<defs>
  <clipPath id="clip812">
    <rect x="146" y="112" width="1327" height="744"/>
  </clipPath>
</defs>
<polyline clip-path="url(#clip812)" style="stroke:#000000; stroke-linecap:round; stroke-linejoin:round; stroke-width:2; stroke-opacity:0.1; fill:none" points="184.32,854.667 184.32,112.104 "/>
<polyline clip-path="url(#clip812)" style="stroke:#000000; stroke-linecap:round; stroke-linejoin:round; stroke-width:2; stroke-opacity:0.1; fill:none" points="497.047,854.667 497.047,112.104 "/>
<polyline clip-path="url(#clip812)" style="stroke:#000000; stroke-linecap:round; stroke-linejoin:round; stroke-width:2; stroke-opacity:0.1; fill:none" points="809.774,854.667 809.774,112.104 "/>
<polyline clip-path="url(#clip812)" style="stroke:#000000; stroke-linecap:round; stroke-linejoin:round; stroke-width:2; stroke-opacity:0.1; fill:none" points="1122.5,854.667 1122.5,112.104 "/>
<polyline clip-path="url(#clip812)" style="stroke:#000000; stroke-linecap:round; stroke-linejoin:round; stroke-width:2; stroke-opacity:0.1; fill:none" points="1435.23,854.667 1435.23,112.104 "/>
<polyline clip-path="url(#clip812)" style="stroke:#000000; stroke-linecap:round; stroke-linejoin:round; stroke-width:2; stroke-opacity:0.1; fill:none" points="146.792,833.651 1472.76,833.651 "/>
<polyline clip-path="url(#clip812)" style="stroke:#000000; stroke-linecap:round; stroke-linejoin:round; stroke-width:2; stroke-opacity:0.1; fill:none" points="146.792,691.118 1472.76,691.118 "/>
<polyline clip-path="url(#clip812)" style="stroke:#000000; stroke-linecap:round; stroke-linejoin:round; stroke-width:2; stroke-opacity:0.1; fill:none" points="146.792,548.586 1472.76,548.586 "/>
<polyline clip-path="url(#clip812)" style="stroke:#000000; stroke-linecap:round; stroke-linejoin:round; stroke-width:2; stroke-opacity:0.1; fill:none" points="146.792,406.054 1472.76,406.054 "/>
<polyline clip-path="url(#clip812)" style="stroke:#000000; stroke-linecap:round; stroke-linejoin:round; stroke-width:2; stroke-opacity:0.1; fill:none" points="146.792,263.521 1472.76,263.521 "/>
<polyline clip-path="url(#clip812)" style="stroke:#000000; stroke-linecap:round; stroke-linejoin:round; stroke-width:2; stroke-opacity:0.1; fill:none" points="146.792,120.989 1472.76,120.989 "/>
<polyline clip-path="url(#clip810)" style="stroke:#000000; stroke-linecap:round; stroke-linejoin:round; stroke-width:4; stroke-opacity:1; fill:none" points="146.792,854.667 1472.76,854.667 "/>
<polyline clip-path="url(#clip810)" style="stroke:#000000; stroke-linecap:round; stroke-linejoin:round; stroke-width:4; stroke-opacity:1; fill:none" points="184.32,854.667 184.32,835.769 "/>
<polyline clip-path="url(#clip810)" style="stroke:#000000; stroke-linecap:round; stroke-linejoin:round; stroke-width:4; stroke-opacity:1; fill:none" points="497.047,854.667 497.047,835.769 "/>
<polyline clip-path="url(#clip810)" style="stroke:#000000; stroke-linecap:round; stroke-linejoin:round; stroke-width:4; stroke-opacity:1; fill:none" points="809.774,854.667 809.774,835.769 "/>
<polyline clip-path="url(#clip810)" style="stroke:#000000; stroke-linecap:round; stroke-linejoin:round; stroke-width:4; stroke-opacity:1; fill:none" points="1122.5,854.667 1122.5,835.769 "/>
<polyline clip-path="url(#clip810)" style="stroke:#000000; stroke-linecap:round; stroke-linejoin:round; stroke-width:4; stroke-opacity:1; fill:none" points="1435.23,854.667 1435.23,835.769 "/>
<path clip-path="url(#clip810)" d="M147.61 874.309 Q153.988 874.309 157.413 880.215 Q160.13 884.892 160.13 892.31 Q160.13 899.656 157.413 904.428 Q154.035 910.263 147.445 910.263 Q140.878 910.263 137.5 904.428 Q134.783 899.656 134.783 892.263 Q134.783 881.963 139.767 877.262 Q142.933 874.309 147.61 874.309 M147.445 877.805 Q143.665 877.805 141.492 881.632 Q139.271 885.506 139.271 892.333 Q139.271 899.019 141.445 902.869 Q143.641 906.649 147.445 906.649 Q152.004 906.649 154.201 901.334 Q155.642 897.767 155.642 892.074 Q155.642 885.436 153.421 881.632 Q151.177 877.805 147.445 877.805 Z" fill="#000000" fill-rule="nonzero" fill-opacity="1" /><path clip-path="url(#clip810)" d="M171.634 909.554 L166.414 909.554 L166.414 904.334 L171.634 904.334 L171.634 909.554 Z" fill="#000000" fill-rule="nonzero" fill-opacity="1" /><path clip-path="url(#clip810)" d="M190.863 874.309 Q197.241 874.309 200.667 880.215 Q203.383 884.892 203.383 892.31 Q203.383 899.656 200.667 904.428 Q197.289 910.263 190.698 910.263 Q184.131 910.263 180.753 904.428 Q178.036 899.656 178.036 892.263 Q178.036 881.963 183.02 877.262 Q186.186 874.309 190.863 874.309 M190.698 877.805 Q186.918 877.805 184.745 881.632 Q182.524 885.506 182.524 892.333 Q182.524 899.019 184.698 902.869 Q186.895 906.649 190.698 906.649 Q195.257 906.649 197.454 901.334 Q198.895 897.767 198.895 892.074 Q198.895 885.436 196.674 881.632 Q194.43 877.805 190.698 877.805 Z" fill="#000000" fill-rule="nonzero" fill-opacity="1" /><path clip-path="url(#clip810)" d="M221.336 874.309 Q227.715 874.309 231.14 880.215 Q233.856 884.892 233.856 892.31 Q233.856 899.656 231.14 904.428 Q227.762 910.263 221.171 910.263 Q214.604 910.263 211.226 904.428 Q208.509 899.656 208.509 892.263 Q208.509 881.963 213.494 877.262 Q216.659 874.309 221.336 874.309 M221.171 877.805 Q217.391 877.805 215.218 881.632 Q212.998 885.506 212.998 892.333 Q212.998 899.019 215.171 902.869 Q217.368 906.649 221.171 906.649 Q225.73 906.649 227.927 901.334 Q229.368 897.767 229.368 892.074 Q229.368 885.436 227.148 881.632 Q224.903 877.805 221.171 877.805 Z" fill="#000000" fill-rule="nonzero" fill-opacity="1" /><path clip-path="url(#clip810)" d="M460.55 874.309 Q466.928 874.309 470.353 880.215 Q473.07 884.892 473.07 892.31 Q473.07 899.656 470.353 904.428 Q466.975 910.263 460.385 910.263 Q453.817 910.263 450.439 904.428 Q447.723 899.656 447.723 892.263 Q447.723 881.963 452.707 877.262 Q455.873 874.309 460.55 874.309 M460.385 877.805 Q456.605 877.805 454.432 881.632 Q452.211 885.506 452.211 892.333 Q452.211 899.019 454.384 902.869 Q456.581 906.649 460.385 906.649 Q464.944 906.649 467.141 901.334 Q468.582 897.767 468.582 892.074 Q468.582 885.436 466.361 881.632 Q464.117 877.805 460.385 877.805 Z" fill="#000000" fill-rule="nonzero" fill-opacity="1" /><path clip-path="url(#clip810)" d="M484.574 909.554 L479.354 909.554 L479.354 904.334 L484.574 904.334 L484.574 909.554 Z" fill="#000000" fill-rule="nonzero" fill-opacity="1" /><path clip-path="url(#clip810)" d="M516.063 909.554 L491.779 909.554 L491.779 905.539 Q494.637 898.877 502.716 893.373 L504.063 892.475 Q508.197 889.64 509.496 888.058 Q510.984 886.215 510.984 883.995 Q510.984 881.538 509.236 879.79 Q507.299 877.853 504.157 877.853 Q497.85 877.853 495.889 884.869 L492.157 883.522 Q494.85 874.309 504.394 874.309 Q509.614 874.309 512.709 877.404 Q515.425 880.191 515.425 884.136 Q515.425 887.066 513.677 889.451 Q512.071 891.766 506.283 895.381 L505.268 895.995 Q497.897 900.554 495.795 905.727 L516.063 905.727 L516.063 909.554 Z" fill="#000000" fill-rule="nonzero" fill-opacity="1" /><path clip-path="url(#clip810)" d="M527.78 890.349 Q531.229 887.633 535.292 887.633 Q540.158 887.633 543.371 890.916 Q546.371 894.058 546.371 898.712 Q546.371 902.94 543.796 906.153 Q540.56 910.263 534.229 910.263 Q526.126 910.263 522.418 904.098 L525.961 902.255 Q528.772 906.743 534.087 906.743 Q537.513 906.743 539.804 904.617 Q542.166 902.373 542.166 898.664 Q542.166 895.168 540.087 893.089 Q537.914 890.916 534.418 890.916 Q529.505 890.916 526.977 894.696 L523.339 894.223 L525.56 874.994 L544.623 874.994 L544.623 878.632 L529.008 878.632 L527.449 890.349 L527.78 890.349 Z" fill="#000000" fill-rule="nonzero" fill-opacity="1" /><path clip-path="url(#clip810)" d="M773.065 874.309 Q779.443 874.309 782.868 880.215 Q785.585 884.892 785.585 892.31 Q785.585 899.656 782.868 904.428 Q779.49 910.263 772.899 910.263 Q766.332 910.263 762.954 904.428 Q760.237 899.656 760.237 892.263 Q760.237 881.963 765.222 877.262 Q768.387 874.309 773.065 874.309 M772.899 877.805 Q769.12 877.805 766.946 881.632 Q764.726 885.506 764.726 892.333 Q764.726 899.019 766.899 902.869 Q769.096 906.649 772.899 906.649 Q777.458 906.649 779.655 901.334 Q781.096 897.767 781.096 892.074 Q781.096 885.436 778.876 881.632 Q776.632 877.805 772.899 877.805 Z" fill="#000000" fill-rule="nonzero" fill-opacity="1" /><path clip-path="url(#clip810)" d="M797.089 909.554 L791.868 909.554 L791.868 904.334 L797.089 904.334 L797.089 909.554 Z" fill="#000000" fill-rule="nonzero" fill-opacity="1" /><path clip-path="url(#clip810)" d="M809.821 890.349 Q813.27 887.633 817.333 887.633 Q822.2 887.633 825.412 890.916 Q828.412 894.058 828.412 898.712 Q828.412 902.94 825.838 906.153 Q822.601 910.263 816.27 910.263 Q808.168 910.263 804.459 904.098 L808.002 902.255 Q810.814 906.743 816.129 906.743 Q819.554 906.743 821.845 904.617 Q824.208 902.373 824.208 898.664 Q824.208 895.168 822.129 893.089 Q819.956 890.916 816.459 890.916 Q811.546 890.916 809.018 894.696 L805.38 894.223 L807.601 874.994 L826.664 874.994 L826.664 878.632 L811.05 878.632 L809.491 890.349 L809.821 890.349 Z" fill="#000000" fill-rule="nonzero" fill-opacity="1" /><path clip-path="url(#clip810)" d="M846.791 874.309 Q853.169 874.309 856.594 880.215 Q859.311 884.892 859.311 892.31 Q859.311 899.656 856.594 904.428 Q853.216 910.263 846.626 910.263 Q840.058 910.263 836.68 904.428 Q833.964 899.656 833.964 892.263 Q833.964 881.963 838.948 877.262 Q842.114 874.309 846.791 874.309 M846.626 877.805 Q842.846 877.805 840.673 881.632 Q838.452 885.506 838.452 892.333 Q838.452 899.019 840.625 902.869 Q842.822 906.649 846.626 906.649 Q851.185 906.649 853.382 901.334 Q854.823 897.767 854.823 892.074 Q854.823 885.436 852.602 881.632 Q850.358 877.805 846.626 877.805 Z" fill="#000000" fill-rule="nonzero" fill-opacity="1" /><path clip-path="url(#clip810)" d="M1086 874.309 Q1092.38 874.309 1095.81 880.215 Q1098.52 884.892 1098.52 892.31 Q1098.52 899.656 1095.81 904.428 Q1092.43 910.263 1085.84 910.263 Q1079.27 910.263 1075.89 904.428 Q1073.18 899.656 1073.18 892.263 Q1073.18 881.963 1078.16 877.262 Q1081.33 874.309 1086 874.309 M1085.84 877.805 Q1082.06 877.805 1079.89 881.632 Q1077.67 885.506 1077.67 892.333 Q1077.67 899.019 1079.84 902.869 Q1082.04 906.649 1085.84 906.649 Q1090.4 906.649 1092.6 901.334 Q1094.04 897.767 1094.04 892.074 Q1094.04 885.436 1091.82 881.632 Q1089.57 877.805 1085.84 877.805 Z" fill="#000000" fill-rule="nonzero" fill-opacity="1" /><path clip-path="url(#clip810)" d="M1110.03 909.554 L1104.81 909.554 L1104.81 904.334 L1110.03 904.334 L1110.03 909.554 Z" fill="#000000" fill-rule="nonzero" fill-opacity="1" /><path clip-path="url(#clip810)" d="M1141.05 877.805 Q1130.77 894.105 1127.3 909.554 L1122.41 909.554 Q1125.83 896.137 1136.16 878.821 L1117.09 878.821 L1117.09 874.994 L1141.05 874.994 L1141.05 877.805 Z" fill="#000000" fill-rule="nonzero" fill-opacity="1" /><path clip-path="url(#clip810)" d="M1153.23 890.349 Q1156.68 887.633 1160.75 887.633 Q1165.61 887.633 1168.83 890.916 Q1171.83 894.058 1171.83 898.712 Q1171.83 902.94 1169.25 906.153 Q1166.01 910.263 1159.68 910.263 Q1151.58 910.263 1147.87 904.098 L1151.42 902.255 Q1154.23 906.743 1159.54 906.743 Q1162.97 906.743 1165.26 904.617 Q1167.62 902.373 1167.62 898.664 Q1167.62 895.168 1165.54 893.089 Q1163.37 890.916 1159.87 890.916 Q1154.96 890.916 1152.43 894.696 L1148.79 894.223 L1151.01 874.994 L1170.08 874.994 L1170.08 878.632 L1154.46 878.632 L1152.9 890.349 L1153.23 890.349 Z" fill="#000000" fill-rule="nonzero" fill-opacity="1" /><path clip-path="url(#clip810)" d="M1400.43 909.554 L1396.18 909.554 L1396.18 879.01 Q1392.19 880.38 1387.77 881.325 L1386.99 878.042 Q1393.32 876.459 1397.74 874.286 L1400.43 874.286 L1400.43 909.554 Z" fill="#000000" fill-rule="nonzero" fill-opacity="1" /><path clip-path="url(#clip810)" d="M1421.24 909.554 L1416.02 909.554 L1416.02 904.334 L1421.24 904.334 L1421.24 909.554 Z" fill="#000000" fill-rule="nonzero" fill-opacity="1" /><path clip-path="url(#clip810)" d="M1440.47 874.309 Q1446.85 874.309 1450.28 880.215 Q1452.99 884.892 1452.99 892.31 Q1452.99 899.656 1450.28 904.428 Q1446.9 910.263 1440.31 910.263 Q1433.74 910.263 1430.36 904.428 Q1427.65 899.656 1427.65 892.263 Q1427.65 881.963 1432.63 877.262 Q1435.8 874.309 1440.47 874.309 M1440.31 877.805 Q1436.53 877.805 1434.35 881.632 Q1432.13 885.506 1432.13 892.333 Q1432.13 899.019 1434.31 902.869 Q1436.5 906.649 1440.31 906.649 Q1444.87 906.649 1447.06 901.334 Q1448.5 897.767 1448.5 892.074 Q1448.5 885.436 1446.28 881.632 Q1444.04 877.805 1440.31 877.805 Z" fill="#000000" fill-rule="nonzero" fill-opacity="1" /><path clip-path="url(#clip810)" d="M1470.95 874.309 Q1477.32 874.309 1480.75 880.215 Q1483.47 884.892 1483.47 892.31 Q1483.47 899.656 1480.75 904.428 Q1477.37 910.263 1470.78 910.263 Q1464.21 910.263 1460.84 904.428 Q1458.12 899.656 1458.12 892.263 Q1458.12 881.963 1463.1 877.262 Q1466.27 874.309 1470.95 874.309 M1470.78 877.805 Q1467 877.805 1464.83 881.632 Q1462.61 885.506 1462.61 892.333 Q1462.61 899.019 1464.78 902.869 Q1466.98 906.649 1470.78 906.649 Q1475.34 906.649 1477.54 901.334 Q1478.98 897.767 1478.98 892.074 Q1478.98 885.436 1476.76 881.632 Q1474.51 877.805 1470.78 877.805 Z" fill="#000000" fill-rule="nonzero" fill-opacity="1" /><polyline clip-path="url(#clip810)" style="stroke:#000000; stroke-linecap:round; stroke-linejoin:round; stroke-width:4; stroke-opacity:1; fill:none" points="146.792,854.667 146.792,112.104 "/>
<polyline clip-path="url(#clip810)" style="stroke:#000000; stroke-linecap:round; stroke-linejoin:round; stroke-width:4; stroke-opacity:1; fill:none" points="146.792,833.651 165.69,833.651 "/>
<polyline clip-path="url(#clip810)" style="stroke:#000000; stroke-linecap:round; stroke-linejoin:round; stroke-width:4; stroke-opacity:1; fill:none" points="146.792,691.118 165.69,691.118 "/>
<polyline clip-path="url(#clip810)" style="stroke:#000000; stroke-linecap:round; stroke-linejoin:round; stroke-width:4; stroke-opacity:1; fill:none" points="146.792,548.586 165.69,548.586 "/>
<polyline clip-path="url(#clip810)" style="stroke:#000000; stroke-linecap:round; stroke-linejoin:round; stroke-width:4; stroke-opacity:1; fill:none" points="146.792,406.054 165.69,406.054 "/>
<polyline clip-path="url(#clip810)" style="stroke:#000000; stroke-linecap:round; stroke-linejoin:round; stroke-width:4; stroke-opacity:1; fill:none" points="146.792,263.521 165.69,263.521 "/>
<polyline clip-path="url(#clip810)" style="stroke:#000000; stroke-linecap:round; stroke-linejoin:round; stroke-width:4; stroke-opacity:1; fill:none" points="146.792,120.989 165.69,120.989 "/>
<path clip-path="url(#clip810)" d="M68.2192 815.213 Q74.5974 815.213 78.0227 821.119 Q80.7393 825.796 80.7393 833.214 Q80.7393 840.561 78.0227 845.332 Q74.6446 851.167 68.0539 851.167 Q61.4868 851.167 58.1087 845.332 Q55.3921 840.561 55.3921 833.167 Q55.3921 822.867 60.3765 818.166 Q63.542 815.213 68.2192 815.213 M68.0539 818.71 Q64.2743 818.71 62.101 822.536 Q59.8804 826.411 59.8804 833.237 Q59.8804 839.923 62.0537 843.773 Q64.2506 847.553 68.0539 847.553 Q72.6131 847.553 74.81 842.238 Q76.251 838.671 76.251 832.978 Q76.251 826.34 74.0304 822.536 Q71.7863 818.71 68.0539 818.71 Z" fill="#000000" fill-rule="nonzero" fill-opacity="1" /><path clip-path="url(#clip810)" d="M92.2435 850.458 L87.0229 850.458 L87.0229 845.238 L92.2435 845.238 L92.2435 850.458 Z" fill="#000000" fill-rule="nonzero" fill-opacity="1" /><path clip-path="url(#clip810)" d="M111.472 815.213 Q117.851 815.213 121.276 821.119 Q123.992 825.796 123.992 833.214 Q123.992 840.561 121.276 845.332 Q117.898 851.167 111.307 851.167 Q104.74 851.167 101.362 845.332 Q98.6453 840.561 98.6453 833.167 Q98.6453 822.867 103.63 818.166 Q106.795 815.213 111.472 815.213 M111.307 818.71 Q107.527 818.71 105.354 822.536 Q103.134 826.411 103.134 833.237 Q103.134 839.923 105.307 843.773 Q107.504 847.553 111.307 847.553 Q115.866 847.553 118.063 842.238 Q119.504 838.671 119.504 832.978 Q119.504 826.34 117.284 822.536 Q115.039 818.71 111.307 818.71 Z" fill="#000000" fill-rule="nonzero" fill-opacity="1" /><path clip-path="url(#clip810)" d="M68.6445 672.681 Q75.0226 672.681 78.4479 678.587 Q81.1645 683.264 81.1645 690.681 Q81.1645 698.028 78.4479 702.8 Q75.0698 708.635 68.4791 708.635 Q61.912 708.635 58.5339 702.8 Q55.8173 698.028 55.8173 690.634 Q55.8173 680.335 60.8017 675.634 Q63.9672 672.681 68.6445 672.681 M68.4791 676.177 Q64.6995 676.177 62.5262 680.004 Q60.3056 683.878 60.3056 690.705 Q60.3056 697.39 62.4789 701.241 Q64.6758 705.02 68.4791 705.02 Q73.0383 705.02 75.2352 699.705 Q76.6762 696.138 76.6762 690.445 Q76.6762 683.807 74.4556 680.004 Q72.2115 676.177 68.4791 676.177 Z" fill="#000000" fill-rule="nonzero" fill-opacity="1" /><path clip-path="url(#clip810)" d="M92.6687 707.926 L87.4481 707.926 L87.4481 702.705 L92.6687 702.705 L92.6687 707.926 Z" fill="#000000" fill-rule="nonzero" fill-opacity="1" /><path clip-path="url(#clip810)" d="M105.401 688.721 Q108.85 686.004 112.913 686.004 Q117.78 686.004 120.992 689.288 Q123.992 692.43 123.992 697.083 Q123.992 701.312 121.418 704.524 Q118.181 708.635 111.85 708.635 Q103.748 708.635 100.039 702.469 L103.582 700.627 Q106.394 705.115 111.709 705.115 Q115.134 705.115 117.425 702.989 Q119.788 700.745 119.788 697.036 Q119.788 693.54 117.709 691.461 Q115.536 689.288 112.039 689.288 Q107.126 689.288 104.598 693.067 L100.96 692.595 L103.181 673.366 L122.244 673.366 L122.244 677.004 L106.63 677.004 L105.071 688.721 L105.401 688.721 Z" fill="#000000" fill-rule="nonzero" fill-opacity="1" /><path clip-path="url(#clip810)" d="M71.4319 565.394 L67.1798 565.394 L67.1798 534.849 Q63.1876 536.22 58.7702 537.164 L57.9906 533.881 Q64.3215 532.298 68.7389 530.125 L71.4319 530.125 L71.4319 565.394 Z" fill="#000000" fill-rule="nonzero" fill-opacity="1" /><path clip-path="url(#clip810)" d="M92.2435 565.394 L87.0229 565.394 L87.0229 560.173 L92.2435 560.173 L92.2435 565.394 Z" fill="#000000" fill-rule="nonzero" fill-opacity="1" /><path clip-path="url(#clip810)" d="M111.472 530.149 Q117.851 530.149 121.276 536.054 Q123.992 540.731 123.992 548.149 Q123.992 555.496 121.276 560.267 Q117.898 566.102 111.307 566.102 Q104.74 566.102 101.362 560.267 Q98.6453 555.496 98.6453 548.102 Q98.6453 537.802 103.63 533.101 Q106.795 530.149 111.472 530.149 M111.307 533.645 Q107.527 533.645 105.354 537.472 Q103.134 541.346 103.134 548.173 Q103.134 554.858 105.307 558.708 Q107.504 562.488 111.307 562.488 Q115.866 562.488 118.063 557.173 Q119.504 553.606 119.504 547.913 Q119.504 541.275 117.284 537.472 Q115.039 533.645 111.307 533.645 Z" fill="#000000" fill-rule="nonzero" fill-opacity="1" /><path clip-path="url(#clip810)" d="M71.8571 422.861 L67.6051 422.861 L67.6051 392.317 Q63.6128 393.687 59.1954 394.632 L58.4158 391.348 Q64.7467 389.766 69.1642 387.592 L71.8571 387.592 L71.8571 422.861 Z" fill="#000000" fill-rule="nonzero" fill-opacity="1" /><path clip-path="url(#clip810)" d="M92.6687 422.861 L87.4481 422.861 L87.4481 417.641 L92.6687 417.641 L92.6687 422.861 Z" fill="#000000" fill-rule="nonzero" fill-opacity="1" /><path clip-path="url(#clip810)" d="M105.401 403.656 Q108.85 400.939 112.913 400.939 Q117.78 400.939 120.992 404.223 Q123.992 407.365 123.992 412.018 Q123.992 416.247 121.418 419.459 Q118.181 423.57 111.85 423.57 Q103.748 423.57 100.039 417.404 L103.582 415.562 Q106.394 420.05 111.709 420.05 Q115.134 420.05 117.425 417.924 Q119.788 415.68 119.788 411.971 Q119.788 408.475 117.709 406.396 Q115.536 404.223 112.039 404.223 Q107.126 404.223 104.598 408.002 L100.96 407.53 L103.181 388.301 L122.244 388.301 L122.244 391.939 L106.63 391.939 L105.071 403.656 L105.401 403.656 Z" fill="#000000" fill-rule="nonzero" fill-opacity="1" /><path clip-path="url(#clip810)" d="M80.4794 280.329 L56.1953 280.329 L56.1953 276.313 Q59.0536 269.651 67.1326 264.147 L68.4791 263.25 Q72.6131 260.415 73.9123 258.832 Q75.4005 256.99 75.4005 254.769 Q75.4005 252.312 73.6525 250.564 Q71.7154 248.627 68.5736 248.627 Q62.2663 248.627 60.3056 255.643 L56.5733 254.297 Q59.2662 245.084 68.8098 245.084 Q74.0304 245.084 77.125 248.178 Q79.8416 250.966 79.8416 254.911 Q79.8416 257.84 78.0935 260.226 Q76.4872 262.541 70.6996 266.155 L69.6839 266.769 Q62.3136 271.328 60.2112 276.502 L80.4794 276.502 L80.4794 280.329 Z" fill="#000000" fill-rule="nonzero" fill-opacity="1" /><path clip-path="url(#clip810)" d="M92.2435 280.329 L87.0229 280.329 L87.0229 275.108 L92.2435 275.108 L92.2435 280.329 Z" fill="#000000" fill-rule="nonzero" fill-opacity="1" /><path clip-path="url(#clip810)" d="M111.472 245.084 Q117.851 245.084 121.276 250.989 Q123.992 255.667 123.992 263.084 Q123.992 270.431 121.276 275.203 Q117.898 281.037 111.307 281.037 Q104.74 281.037 101.362 275.203 Q98.6453 270.431 98.6453 263.037 Q98.6453 252.737 103.63 248.037 Q106.795 245.084 111.472 245.084 M111.307 248.58 Q107.527 248.58 105.354 252.407 Q103.134 256.281 103.134 263.108 Q103.134 269.793 105.307 273.644 Q107.504 277.423 111.307 277.423 Q115.866 277.423 118.063 272.108 Q119.504 268.541 119.504 262.848 Q119.504 256.21 117.284 252.407 Q115.039 248.58 111.307 248.58 Z" fill="#000000" fill-rule="nonzero" fill-opacity="1" /><path clip-path="url(#clip810)" d="M80.9046 137.796 L56.6205 137.796 L56.6205 133.78 Q59.4789 127.119 67.5578 121.615 L68.9043 120.717 Q73.0383 117.882 74.3375 116.3 Q75.8258 114.457 75.8258 112.237 Q75.8258 109.78 74.0777 108.032 Q72.1406 106.095 68.9988 106.095 Q62.6915 106.095 60.7309 113.111 L56.9985 111.764 Q59.6915 102.551 69.235 102.551 Q74.4556 102.551 77.5502 105.646 Q80.2668 108.433 80.2668 112.378 Q80.2668 115.307 78.5187 117.693 Q76.9124 120.008 71.1248 123.623 L70.1091 124.237 Q62.7388 128.796 60.6364 133.969 L80.9046 133.969 L80.9046 137.796 Z" fill="#000000" fill-rule="nonzero" fill-opacity="1" /><path clip-path="url(#clip810)" d="M92.6687 137.796 L87.4481 137.796 L87.4481 132.576 L92.6687 132.576 L92.6687 137.796 Z" fill="#000000" fill-rule="nonzero" fill-opacity="1" /><path clip-path="url(#clip810)" d="M105.401 118.591 Q108.85 115.874 112.913 115.874 Q117.78 115.874 120.992 119.158 Q123.992 122.3 123.992 126.953 Q123.992 131.182 121.418 134.395 Q118.181 138.505 111.85 138.505 Q103.748 138.505 100.039 132.339 L103.582 130.497 Q106.394 134.985 111.709 134.985 Q115.134 134.985 117.425 132.859 Q119.788 130.615 119.788 126.906 Q119.788 123.41 117.709 121.331 Q115.536 119.158 112.039 119.158 Q107.126 119.158 104.598 122.938 L100.96 122.465 L103.181 103.236 L122.244 103.236 L122.244 106.874 L106.63 106.874 L105.071 118.591 L105.401 118.591 Z" fill="#000000" fill-rule="nonzero" fill-opacity="1" /><path clip-path="url(#clip810)" d="M336.641 34.7112 Q349.433 36.979 349.433 47.0422 Q349.433 55.9007 340.645 59.6922 Q336.464 61.4993 329.909 61.4993 L313.078 61.4993 L313.078 9.65932 L327.889 9.65932 Q334.444 9.65932 338.696 11.183 Q347.484 14.3366 347.484 22.6282 Q347.484 32.6206 336.641 34.4631 L336.641 34.7112 M319.314 32.0891 L327.074 32.0891 Q340.893 32.0891 340.893 23.3014 Q340.893 14.7973 327.499 14.7973 L319.314 14.7973 L319.314 32.0891 M319.314 56.2905 L329.023 56.2905 Q342.7 56.2905 342.7 46.6879 Q342.7 40.6995 335.932 38.3963 Q331.999 37.0144 327.428 37.0144 L319.314 37.0144 L319.314 56.2905 Z" fill="#000000" fill-rule="nonzero" fill-opacity="1" /><path clip-path="url(#clip810)" d="M363.784 44.1366 Q364.103 50.4085 367.717 54.0227 Q371.402 57.7079 376.646 57.7079 Q383.556 57.7079 387.595 51.2589 L391.67 53.9519 Q386.532 62.5623 375.902 62.5623 Q367.859 62.5623 362.685 57.4244 Q357.476 52.1802 357.476 43.6051 Q357.476 34.4986 362.933 29.0417 Q367.788 24.1873 375.052 24.1873 Q381.89 24.1873 386.497 28.6874 Q391.67 33.9316 391.67 42.6838 L391.67 44.1366 L363.784 44.1366 M385.257 39.5656 Q384.725 34.6403 381.784 31.8056 Q378.879 28.9 374.91 28.9 Q370.303 28.9 367.044 32.8332 Q364.811 35.4907 364.138 39.5656 L385.257 39.5656 Z" fill="#000000" fill-rule="nonzero" fill-opacity="1" /><path clip-path="url(#clip810)" d="M419.38 59.4796 Q415.376 62.2789 411.124 62.2789 Q402.69 62.2789 402.69 52.7825 L402.69 29.7859 L397.765 29.7859 L397.765 25.3566 L402.69 25.3566 L402.69 17.2422 L408.643 14.2657 L408.643 25.3566 L418.671 25.3566 L418.671 29.7859 L408.643 29.7859 L408.643 51.9321 Q408.643 57.4953 412.435 57.4953 Q414.986 57.4953 417.289 55.5464 L419.38 59.4796 Z" fill="#000000" fill-rule="nonzero" fill-opacity="1" /><path clip-path="url(#clip810)" d="M456.196 61.4993 L450.668 61.4993 Q449.428 58.7709 449.073 55.9007 L448.861 55.9007 Q444.75 62.4915 436.601 62.4915 Q431.002 62.4915 427.459 58.9481 Q424.34 55.8299 424.34 51.3297 Q424.34 40.1326 443.652 39.5656 L448.506 39.4239 L448.506 37.5459 Q448.506 33.7545 446.31 31.593 Q444.077 29.3252 440.534 29.3252 Q434.439 29.3252 431.392 35.2427 L426.006 32.7623 Q431.002 24.4707 440.675 24.4707 Q447.302 24.4707 450.916 28.1913 Q454.247 31.5221 454.247 37.6168 L454.247 50.9045 Q454.247 57.6724 456.196 61.4993 M448.648 43.7823 L444.644 43.8532 Q430.648 44.1721 430.648 51.4006 Q430.648 53.9519 432.313 55.6173 Q434.368 57.637 437.699 57.637 Q442.341 57.637 445.743 54.2353 Q448.648 51.2234 448.648 46.9714 L448.648 43.7823 Z" fill="#000000" fill-rule="nonzero" fill-opacity="1" /><path clip-path="url(#clip810)" d="M482.169 73.7241 L479.051 75.4249 Q465.834 61.4285 465.834 40.9476 Q465.834 20.5021 479.051 6.54112 L482.169 8.20652 Q471.716 22.2738 471.716 40.8767 Q471.716 59.9048 482.169 73.7241 Z" fill="#000000" fill-rule="nonzero" fill-opacity="1" /><path clip-path="url(#clip810)" d="M497.831 32.6914 Q503.004 28.6165 509.099 28.6165 Q516.398 28.6165 521.217 33.5419 Q525.717 38.2546 525.717 45.2351 Q525.717 51.5778 521.855 56.3968 Q517 62.5623 507.504 62.5623 Q495.35 62.5623 489.787 53.3141 L495.102 50.5502 Q499.319 57.2827 507.291 57.2827 Q512.429 57.2827 515.867 54.0936 Q519.41 50.7274 519.41 45.1642 Q519.41 39.92 516.292 36.8018 Q513.032 33.5419 507.788 33.5419 Q500.417 33.5419 496.626 39.2113 L491.169 38.5026 L494.5 9.65932 L523.095 9.65932 L523.095 15.1162 L499.673 15.1162 L497.335 32.6914 L497.831 32.6914 Z" fill="#000000" fill-rule="nonzero" fill-opacity="1" /><path clip-path="url(#clip810)" d="M543.222 53.9519 Q541.84 64.0506 536.56 73.6178 L531.918 72.3776 Q535.78 63.3419 536.631 53.9519 L543.222 53.9519 Z" fill="#000000" fill-rule="nonzero" fill-opacity="1" /><path clip-path="url(#clip810)" d="M610.44 61.4993 L574.014 61.4993 L574.014 55.4755 Q578.301 45.4831 590.42 37.227 L592.439 35.8805 Q598.64 31.6284 600.589 29.2543 Q602.822 26.4905 602.822 23.1597 Q602.822 19.4745 600.2 16.8524 Q597.294 13.9468 592.581 13.9468 Q583.12 13.9468 580.179 24.4707 L574.581 22.451 Q578.62 8.63173 592.936 8.63173 Q600.766 8.63173 605.408 13.2736 Q609.483 17.4548 609.483 23.3723 Q609.483 27.7661 606.861 31.345 Q604.452 34.8175 595.77 40.2389 L594.247 41.1602 Q583.191 47.999 580.038 55.759 L610.44 55.759 L610.44 61.4993 Z" fill="#000000" fill-rule="nonzero" fill-opacity="1" /><path clip-path="url(#clip810)" d="M619.936 6.54112 Q633.224 20.573 633.224 40.9476 Q633.224 61.3576 619.936 75.4249 L616.818 73.7241 Q627.342 59.7631 627.342 40.8767 Q627.342 22.4156 616.818 8.20652 L619.936 6.54112 Z" fill="#000000" fill-rule="nonzero" fill-opacity="1" /><path clip-path="url(#clip810)" d="M691.867 17.7383 L691.867 13.5216 L663.839 13.5216 L663.839 9.37585 L691.867 9.37585 L691.867 1.97013 L697.005 1.97013 L697.005 9.37585 L725.53 9.37585 L725.53 13.5216 L697.005 13.5216 L697.005 17.7383 L717.77 17.7383 L717.77 30.2111 L697.005 30.2111 L697.005 34.4277 L718.797 34.4277 L718.797 42.2586 L727.337 42.2586 L727.337 46.5462 L718.797 46.5462 L718.797 57.7079 L713.801 57.7079 L713.801 54.5897 L697.005 54.5897 L697.005 62.1371 Q697.005 65.1845 695.482 66.2475 Q694.135 67.2042 690.627 67.2042 Q686.729 67.2042 682.407 66.779 L681.556 61.5702 Q686.163 62.4915 689.387 62.4915 Q691.867 62.4915 691.867 60.4009 L691.867 54.5897 L667.985 54.5897 L667.985 50.5856 L691.867 50.5856 L691.867 46.4044 L662.032 46.4044 L662.032 42.4004 L691.867 42.4004 L691.867 38.4318 L667.914 38.4318 L667.914 34.4277 L691.867 34.4277 L691.867 30.2111 L671.528 30.2111 L671.528 17.7383 L691.867 17.7383 M691.867 21.4943 L676.383 21.4943 L676.383 26.3488 L691.867 26.3488 L691.867 21.4943 M697.005 21.4943 L697.005 26.3488 L712.915 26.3488 L712.915 21.4943 L697.005 21.4943 M697.005 50.5856 L713.801 50.5856 L713.801 46.4044 L697.005 46.4044 L697.005 50.5856 M697.005 42.4004 L713.801 42.4004 L713.801 38.4318 L697.005 38.4318 L697.005 42.4004 Z" fill="#000000" fill-rule="nonzero" fill-opacity="1" /><path clip-path="url(#clip810)" d="M772.409 13.6634 Q775.35 8.45456 777.83 1.89926 L783.571 3.42293 Q781.48 8.13566 778.078 13.6634 L799.906 13.6634 L799.906 18.3052 L734.601 18.3052 L734.601 13.6634 L772.409 13.6634 M765.074 24.0455 L765.074 61.9245 Q765.074 64.6884 763.834 65.6805 Q762.7 66.6373 759.582 66.6373 Q757.031 66.6373 752.956 66.2475 L752.318 61.2513 Q755.684 61.9245 758.342 61.9245 Q760.22 61.9245 760.22 60.2591 L760.22 50.5148 L744.912 50.5148 L744.912 67.2751 L739.987 67.2751 L739.987 24.0455 L765.074 24.0455 M744.912 28.4039 L744.912 35.0655 L760.22 35.0655 L760.22 28.4039 L744.912 28.4039 M744.912 39.2822 L744.912 46.2981 L760.22 46.2981 L760.22 39.2822 L744.912 39.2822 M755.153 13.5216 Q752.92 8.13566 749.767 4.30878 L754.55 2.11187 Q757.668 5.97418 760.291 11.183 L755.153 13.5216 M774.464 25.4983 L779.46 25.4983 L779.46 54.4479 L774.464 54.4479 L774.464 25.4983 M789.346 23.3723 L794.484 23.3723 L794.484 61.1095 Q794.484 64.1569 793.315 65.3262 Q792.039 66.8499 787.823 66.8499 Q783.535 66.8499 778.256 66.2829 L777.582 61.1095 Q782.579 61.9954 786.937 61.9954 Q789.346 61.9954 789.346 59.5859 L789.346 23.3723 Z" fill="#000000" fill-rule="nonzero" fill-opacity="1" /><path clip-path="url(#clip810)" d="M837.927 34.6403 Q836.615 46.5816 832.222 53.5975 Q826.127 63.1293 814.221 67.5231 L810.642 62.8104 Q830.273 56.6803 832.363 34.6403 L819.146 34.6403 L819.146 30.778 Q815.39 34.6403 810.961 37.7585 L807.099 33.471 Q821.698 23.3723 828.714 4.87572 L834.029 6.9309 Q828.501 20.573 820.032 29.9276 L859.86 29.9276 Q858.868 55.8653 857.309 61.145 Q856.459 64.0506 854.12 65.0427 Q852.171 65.8577 848.238 65.8577 Q843.525 65.8577 837.36 65.1845 L836.261 59.3024 Q842.568 60.6489 847.139 60.6489 Q851.321 60.6489 852.1 57.2472 Q853.305 51.6487 854.262 34.6403 L837.927 34.6403 M868.719 36.0931 Q853.624 25.4983 843.312 6.25765 L848.167 4.23791 Q857.38 21.7069 872.546 31.0615 L868.719 36.0931 Z" fill="#000000" fill-rule="nonzero" fill-opacity="1" /><path clip-path="url(#clip810)" d="M912.728 31.1323 L912.728 21.5652 L917.937 21.5652 L917.937 31.1323 L938.488 31.1323 L938.488 53.7038 Q938.488 56.822 936.823 58.0622 Q935.406 59.1607 931.65 59.1607 Q928.567 59.1607 924.527 58.9126 L923.606 53.4204 Q928.248 54.1645 930.941 54.1645 Q933.35 54.1645 933.35 51.3652 L933.35 35.8451 L917.937 35.8451 L917.937 67.2751 L912.728 67.2751 L912.728 35.8451 L899.44 35.8451 L899.44 61.1804 L894.302 61.1804 L894.302 36.9435 Q889.27 42.4004 883.176 47.3257 L879.562 43.0382 Q893.629 32.4434 900.432 18.5887 L881.971 18.5887 L881.971 13.7342 L902.629 13.7342 Q904.578 9.05694 906.243 2.92685 L911.842 3.77727 Q909.999 10.2617 908.511 13.7342 L944.016 13.7342 L944.016 18.5887 L906.385 18.5887 Q902.948 25.5692 898.908 31.1323 L912.728 31.1323 Z" fill="#000000" fill-rule="nonzero" fill-opacity="1" /><path clip-path="url(#clip810)" d="M982.604 56.8929 Q1007.05 53.5267 1007.05 34.7112 Q1007.05 23.0534 997.273 17.7383 Q993.057 15.5768 987.458 15.0453 Q985.722 33.5773 979.556 46.3336 Q973.568 58.7355 966.765 58.7355 Q962.938 58.7355 959.536 54.6605 Q954.15 48.1053 954.15 39.4948 Q954.15 27.9078 963.08 19.1911 Q972.009 10.4743 986.147 10.4743 Q996.069 10.4743 1003.12 15.4705 Q1013.15 22.451 1013.15 34.7112 Q1013.15 57.2472 986.147 62.1371 L982.604 56.8929 M981.86 15.187 Q974.206 16.3564 968.678 20.9273 Q959.678 28.4039 959.678 39.6365 Q959.678 46.7233 963.505 51.1171 Q965.17 52.9951 966.729 52.9951 Q970.166 52.9951 974.631 43.7823 Q980.23 32.3017 981.86 15.187 Z" fill="#000000" fill-rule="nonzero" fill-opacity="1" /><path clip-path="url(#clip810)" d="M1052.94 44.3492 Q1044.54 44.3492 1042.91 43.0382 L1042.56 43.2508 Q1035.15 47.1131 1026.15 49.877 L1023.39 45.8729 Q1033.91 42.8964 1041.53 38.9987 L1041.53 21.2817 L1046.53 21.2817 L1046.53 36.0222 Q1058.79 27.8724 1066.58 15.8248 L1070.94 17.88 Q1061.91 31.2741 1049.15 39.4239 L1048.65 39.7074 Q1049.01 39.7074 1049.22 39.7783 Q1050.6 39.8491 1054.25 39.8491 Q1064.74 39.8491 1065.7 38.4672 Q1066.65 37.227 1066.65 31.2386 L1071.58 32.5851 Q1071.47 41.0184 1068.67 42.8964 Q1066.72 44.1721 1058.08 44.2784 L1058.08 59.3733 L1074.06 59.3733 L1074.06 47.0422 L1079.2 47.0422 L1079.2 67.2751 L1074.06 67.2751 L1074.06 64.086 L1037.46 64.086 L1037.46 67.2751 L1032.39 67.2751 L1032.39 48.6368 L1037.46 48.6368 L1037.46 59.3733 L1052.94 59.3733 L1052.94 44.3492 M1057.87 10.7578 L1084.65 10.7578 L1084.65 23.7621 L1079.34 23.7621 L1079.34 15.1162 L1031.29 15.1162 L1031.29 23.7621 L1026.08 23.7621 L1026.08 10.7578 L1052.41 10.7578 L1052.41 1.97013 L1057.87 1.97013 L1057.87 10.7578 M1054.61 26.6322 Q1051.59 22.4156 1047.27 18.3052 L1050.89 15.754 Q1055.31 19.3328 1058.43 23.6912 L1054.61 26.6322 M1027.07 37.8294 Q1031.47 31.345 1033.77 22.7345 L1038.2 24.0455 Q1036.22 33.0104 1031.43 40.735 L1027.07 37.8294 M1080.72 40.8767 Q1075.65 31.4867 1069.77 24.6125 L1073.53 21.9195 Q1080.33 29.3961 1085.22 37.5459 L1080.72 40.8767 Z" fill="#000000" fill-rule="nonzero" fill-opacity="1" /><path clip-path="url(#clip810)" d="M1131.53 9.80106 L1157.33 9.80106 L1157.33 14.2303 L1106.16 14.2303 L1106.16 21.9904 L1118.07 21.9904 L1118.07 16.4272 L1122.92 16.4272 L1122.92 21.9904 L1138.12 21.9904 L1138.12 16.4272 L1142.98 16.4272 L1142.98 21.9904 L1157.72 21.9904 L1157.72 26.3488 L1142.98 26.3488 L1142.98 36.5183 L1118.07 36.5183 L1118.07 26.3488 L1106.16 26.3488 L1106.16 31.0615 Q1106.16 45.9438 1104.5 53.4204 Q1103.08 59.9048 1098.54 67.2042 L1094.72 62.7749 Q1099.08 56.0779 1100.32 46.5462 Q1101.02 41.0184 1101.02 31.0615 L1101.02 9.80106 L1126.08 9.80106 L1126.08 1.97013 L1131.53 1.97013 L1131.53 9.80106 M1122.92 26.3488 L1122.92 32.5143 L1138.12 32.5143 L1138.12 26.3488 L1122.92 26.3488 M1132.6 59.2315 Q1123.28 64.8301 1108.36 67.8066 L1105.52 63.3065 Q1119.41 61.4993 1128.1 56.6449 Q1120.51 51.8967 1115.69 44.9516 L1109.53 44.9516 L1109.53 40.6641 L1147.19 40.6641 L1149.82 42.9319 Q1144.15 50.94 1136.95 56.3614 Q1145.78 59.9402 1158.89 61.5702 L1155.63 66.7081 Q1141.95 64.0506 1132.6 59.2315 M1121.22 44.9516 Q1125.51 50.373 1132.24 54.0936 Q1138.87 49.5226 1141.81 44.9516 L1121.22 44.9516 Z" fill="#000000" fill-rule="nonzero" fill-opacity="1" /><path clip-path="url(#clip810)" d="M1197.33 4.80486 L1197.33 24.9314 L1175.75 24.9314 L1175.75 67.2751 L1170.69 67.2751 L1170.69 4.80486 L1197.33 4.80486 M1175.75 8.8089 L1175.75 13.0964 L1192.69 13.0964 L1192.69 8.8089 L1175.75 8.8089 M1175.75 16.6398 L1175.75 21.0691 L1192.69 21.0691 L1192.69 16.6398 L1175.75 16.6398 M1230.25 4.80486 L1230.25 61.7119 Q1230.25 66.8499 1224.3 66.8499 Q1220.44 66.8499 1217.18 66.3538 L1216.33 61.1095 Q1219.13 61.8537 1222.7 61.8537 Q1225.11 61.8537 1225.11 59.4441 L1225.11 24.9314 L1203.04 24.9314 L1203.04 4.80486 L1230.25 4.80486 M1207.68 8.8089 L1207.68 13.0964 L1225.11 13.0964 L1225.11 8.8089 L1207.68 8.8089 M1207.68 16.6398 L1207.68 21.0691 L1225.11 21.0691 L1225.11 16.6398 L1207.68 16.6398 M1191.74 34.1088 Q1190.64 31.4513 1188.62 28.4394 L1193.26 26.774 Q1194.96 29.715 1196.66 34.1088 L1204.21 34.1088 Q1206.37 29.8922 1207.4 26.4905 L1212.46 27.9433 Q1210.52 31.9473 1209.06 34.1088 L1218.28 34.1088 L1218.28 38.2546 L1202.68 38.2546 L1202.68 43.2508 L1220.12 43.2508 L1220.12 47.4674 L1202.4 47.4674 Q1202.33 47.8926 1202.05 49.2746 Q1209.77 52.4282 1217.92 57.5661 L1214.45 61.8182 Q1208.32 57.2118 1201.44 53.5621 Q1201.41 53.5267 1200.98 53.2786 Q1200.81 53.1723 1200.74 53.1369 Q1196.91 61.0741 1185.5 65.1136 L1182.24 60.8261 Q1195.63 57.5661 1197.48 47.4674 L1180.86 47.4674 L1180.86 43.2508 L1197.83 43.2508 L1197.83 38.2546 L1182.66 38.2546 L1182.66 34.1088 L1191.74 34.1088 Z" fill="#000000" fill-rule="nonzero" fill-opacity="1" /><path clip-path="url(#clip810)" d="M1269.09 44.5973 Q1267.88 50.7982 1264.3 56.1488 Q1266.54 57.1764 1271.85 59.9048 L1268.66 64.334 Q1265.62 62.208 1261.12 59.8339 Q1254.6 65.5034 1244.78 67.8774 L1241.59 63.6254 Q1251.12 61.9954 1256.62 57.6016 Q1250.63 54.8377 1245.13 52.9597 Q1247.9 48.8848 1249.81 45.1642 L1250.1 44.5973 L1240.88 44.5973 L1240.88 40.3806 L1252.04 40.3806 Q1252.75 38.7861 1254.6 34.1442 L1255.98 34.4277 L1255.98 23.9747 Q1250.98 31.1678 1243.04 36.0931 L1239.93 32.0182 Q1248.36 28.0496 1254.13 20.9273 L1241.1 20.9273 L1241.1 16.7816 L1255.98 16.7816 L1255.98 1.97013 L1260.76 1.97013 L1260.76 16.7816 L1274.19 16.7816 L1274.19 20.9273 L1260.76 20.9273 L1260.76 22.3801 Q1266.96 24.896 1272.81 28.6165 L1270.33 32.904 Q1265.76 29.0772 1260.76 26.3842 L1260.76 35.3136 L1259.1 35.3136 Q1258.67 36.2703 1258.03 37.9357 Q1257.29 39.8137 1257.04 40.3806 L1275.11 40.3806 L1275.11 44.5973 L1269.09 44.5973 M1264.23 44.5973 L1255.09 44.5973 Q1253.57 47.8218 1251.69 50.9045 Q1254.49 51.8967 1260.02 54.2353 Q1263.03 50.3376 1264.23 44.5973 M1286.27 49.0265 Q1281.63 42.0106 1279.19 32.3017 Q1277.34 36.3412 1275.68 39.353 L1271.99 34.9238 Q1278.48 23.1597 1281.21 2.21817 L1286.27 3.24576 Q1285.39 9.30498 1284.4 14.6201 L1304.95 14.6201 L1304.95 19.4037 L1299.21 19.4037 Q1298 36.412 1292.01 48.7076 Q1298.25 56.5031 1306.47 61.3576 L1302.82 66.4955 Q1295.63 61.0032 1289.32 53.2786 Q1283.44 61.8182 1274.69 67.4522 L1271.18 63.0939 Q1280.89 57.6016 1286.27 49.0265 M1288.82 44.1366 Q1292.79 35.1364 1294.18 19.4037 L1283.3 19.4037 Q1282.62 22.3093 1281.84 24.9314 Q1281.95 25.3566 1282.06 25.9944 Q1284.15 36.6246 1288.82 44.1366 M1248.18 15.5414 Q1246.76 10.6869 1244.04 6.25765 L1248.75 4.45052 Q1250.95 7.92305 1253.11 13.8051 L1248.18 15.5414 M1263.06 13.8051 Q1265.72 9.05694 1267.28 4.02531 L1272.28 5.54897 Q1270.43 10.1908 1267.14 15.3996 L1263.06 13.8051 Z" fill="#000000" fill-rule="nonzero" fill-opacity="1" /><polyline clip-path="url(#clip812)" style="stroke:#009af9; stroke-linecap:round; stroke-linejoin:round; stroke-width:4; stroke-opacity:1; fill:none" points="184.32,833.651 197.234,833.651 272.87,833.451 308.056,832.913 355.218,831.079 394.189,828.012 430.428,823.358 453.174,819.324 475.92,814.285 496.323,808.808 516.726,802.34 540.081,793.614 563.435,783.366 580.893,774.65 598.35,764.987 620.678,751.194 643.007,735.736 663.386,720.137 683.765,703.095 706.959,681.933 730.153,658.903 748.54,639.343 766.926,618.665 789.769,591.483 812.612,562.755 830.105,539.795 847.599,516.09 896.927,446.069 933.789,391.908 954.749,360.998 975.709,330.381 996.466,300.68 1017.22,271.959 1028.64,256.721 1040.06,241.97 1051.48,227.779 1062.9,214.228 1071.62,204.357 1080.34,194.944 1089.06,186.028 1097.79,177.647 1108.79,167.901 1119.8,159.161 1130.8,151.516 1141.81,145.059 1151.99,140.227 1162.17,136.572 1172.35,134.175 1182.53,133.12 1193.03,133.528 1203.53,135.554 1208.77,137.204 1214.02,139.297 1219.27,141.846 1224.52,144.863 1229.84,148.413 1235.16,152.473 1240.48,157.058 1245.81,162.181 1251.13,167.859 1256.45,174.105 1261.77,180.936 1267.09,188.367 1272.64,196.783 1278.2,205.89 1283.76,215.704 1289.31,226.245 1294.87,237.533 1300.42,249.585 1305.98,262.423 1311.53,276.065 1315.91,287.392 1320.29,299.241 1324.66,311.621 1329.04,324.544 1333.42,338.019 1337.79,352.058 1342.17,366.669 1346.55,381.865 1351.53,399.893 1356.51,418.708 1361.5,438.326 1366.48,458.765 1371.46,480.039 1376.45,502.168 1381.43,525.166 1386.42,549.052 1391.4,573.844 1396.38,599.557 1401.37,626.211 1406.35,653.823 1411.33,682.412 1416.32,711.996 1421.3,742.593 1426.28,774.222 1428.52,788.757 1430.76,803.506 1432.99,818.47 1435.23,833.651 "/>
<path clip-path="url(#clip810)" d="M190.991 292.376 L643.734 292.376 L643.734 136.856 L190.991 136.856  Z" fill="#ffffff" fill-rule="evenodd" fill-opacity="1"/>
<polyline clip-path="url(#clip810)" style="stroke:#000000; stroke-linecap:round; stroke-linejoin:round; stroke-width:4; stroke-opacity:1; fill:none" points="190.991,292.376 643.734,292.376 643.734,136.856 190.991,136.856 190.991,292.376 "/>
<polyline clip-path="url(#clip810)" style="stroke:#009af9; stroke-linecap:round; stroke-linejoin:round; stroke-width:6; stroke-opacity:1; fill:none" points="205.724,214.616 294.122,214.616 "/>
<path clip-path="url(#clip810)" d="M332.418 213.039 Q345.21 215.307 345.21 225.37 Q345.21 234.229 336.422 238.02 Q332.241 239.827 325.686 239.827 L308.855 239.827 L308.855 187.987 L323.666 187.987 Q330.221 187.987 334.473 189.511 Q343.261 192.664 343.261 200.956 Q343.261 210.948 332.418 212.791 L332.418 213.039 M315.091 210.417 L322.851 210.417 Q336.67 210.417 336.67 201.629 Q336.67 193.125 323.276 193.125 L315.091 193.125 L315.091 210.417 M315.091 234.618 L324.8 234.618 Q338.477 234.618 338.477 225.016 Q338.477 219.027 331.71 216.724 Q327.776 215.342 323.205 215.342 L315.091 215.342 L315.091 234.618 Z" fill="#000000" fill-rule="nonzero" fill-opacity="1" /><path clip-path="url(#clip810)" d="M359.561 222.464 Q359.88 228.736 363.494 232.351 Q367.179 236.036 372.423 236.036 Q379.333 236.036 383.372 229.587 L387.447 232.28 Q382.309 240.89 371.679 240.89 Q363.636 240.89 358.462 235.752 Q353.253 230.508 353.253 221.933 Q353.253 212.826 358.71 207.37 Q363.565 202.515 370.829 202.515 Q377.668 202.515 382.274 207.015 Q387.447 212.259 387.447 221.012 L387.447 222.464 L359.561 222.464 M381.034 217.893 Q380.502 212.968 377.561 210.133 Q374.656 207.228 370.687 207.228 Q366.081 207.228 362.821 211.161 Q360.588 213.819 359.915 217.893 L381.034 217.893 Z" fill="#000000" fill-rule="nonzero" fill-opacity="1" /><path clip-path="url(#clip810)" d="M415.157 237.807 Q411.153 240.607 406.901 240.607 Q398.467 240.607 398.467 231.11 L398.467 208.114 L393.542 208.114 L393.542 203.684 L398.467 203.684 L398.467 195.57 L404.42 192.594 L404.42 203.684 L414.448 203.684 L414.448 208.114 L404.42 208.114 L404.42 230.26 Q404.42 235.823 408.212 235.823 Q410.763 235.823 413.066 233.874 L415.157 237.807 Z" fill="#000000" fill-rule="nonzero" fill-opacity="1" /><path clip-path="url(#clip810)" d="M451.973 239.827 L446.445 239.827 Q445.205 237.099 444.85 234.229 L444.638 234.229 Q440.528 240.819 432.378 240.819 Q426.779 240.819 423.236 237.276 Q420.118 234.158 420.118 229.658 Q420.118 218.46 439.429 217.893 L444.284 217.752 L444.284 215.874 Q444.284 212.082 442.087 209.921 Q439.854 207.653 436.311 207.653 Q430.216 207.653 427.169 213.571 L421.783 211.09 Q426.779 202.799 436.453 202.799 Q443.079 202.799 446.693 206.519 Q450.024 209.85 450.024 215.945 L450.024 229.232 Q450.024 236 451.973 239.827 M444.425 222.11 L440.421 222.181 Q426.425 222.5 426.425 229.728 Q426.425 232.28 428.09 233.945 Q430.145 235.965 433.476 235.965 Q438.118 235.965 441.52 232.563 Q444.425 229.551 444.425 225.299 L444.425 222.11 Z" fill="#000000" fill-rule="nonzero" fill-opacity="1" /><path clip-path="url(#clip810)" d="M477.946 252.052 L474.828 253.753 Q461.611 239.756 461.611 219.275 Q461.611 198.83 474.828 184.869 L477.946 186.534 Q467.493 200.602 467.493 219.205 Q467.493 238.233 477.946 252.052 Z" fill="#000000" fill-rule="nonzero" fill-opacity="1" /><path clip-path="url(#clip810)" d="M493.608 211.019 Q498.781 206.944 504.876 206.944 Q512.175 206.944 516.994 211.87 Q521.494 216.582 521.494 223.563 Q521.494 229.906 517.632 234.725 Q512.778 240.89 503.281 240.89 Q491.127 240.89 485.564 231.642 L490.879 228.878 Q495.096 235.61 503.069 235.61 Q508.207 235.61 511.644 232.421 Q515.187 229.055 515.187 223.492 Q515.187 218.248 512.069 215.13 Q508.809 211.87 503.565 211.87 Q496.194 211.87 492.403 217.539 L486.946 216.83 L490.277 187.987 L518.872 187.987 L518.872 193.444 L495.45 193.444 L493.112 211.019 L493.608 211.019 Z" fill="#000000" fill-rule="nonzero" fill-opacity="1" /><path clip-path="url(#clip810)" d="M538.999 232.28 Q537.617 242.378 532.337 251.946 L527.695 250.705 Q531.558 241.67 532.408 232.28 L538.999 232.28 Z" fill="#000000" fill-rule="nonzero" fill-opacity="1" /><path clip-path="url(#clip810)" d="M606.217 239.827 L569.791 239.827 L569.791 233.803 Q574.078 223.811 586.197 215.555 L588.217 214.208 Q594.418 209.956 596.366 207.582 Q598.599 204.818 598.599 201.487 Q598.599 197.802 595.977 195.18 Q593.071 192.275 588.358 192.275 Q578.897 192.275 575.956 202.799 L570.358 200.779 Q574.397 186.96 588.713 186.96 Q596.544 186.96 601.185 191.601 Q605.26 195.783 605.26 201.7 Q605.26 206.094 602.638 209.673 Q600.229 213.145 591.547 218.567 L590.024 219.488 Q578.968 226.327 575.815 234.087 L606.217 234.087 L606.217 239.827 Z" fill="#000000" fill-rule="nonzero" fill-opacity="1" /><path clip-path="url(#clip810)" d="M615.713 184.869 Q629.001 198.901 629.001 219.275 Q629.001 239.685 615.713 253.753 L612.595 252.052 Q623.119 238.091 623.119 219.205 Q623.119 200.743 612.595 186.534 L615.713 184.869 Z" fill="#000000" fill-rule="nonzero" fill-opacity="1" /></svg>
